{
    "asset" : {
        "generator" : "Khronos glTF Blender I/O v1.2.75",
        "version" : "2.0"
    },
    "scene" : 0,
    "scenes" : [
        {
            "name" : "Scene",
            "nodes" : [
                0,
                1,
                2
            ]
        }
    ],
    "nodes" : [
        {
            "name" : "Light",
            "rotation" : [
                0.16907575726509094,
                0.7558803558349609,
                -0.27217137813568115,
                0.570947527885437
            ],
            "translation" : [
                4.076245307922363,
                5.903861999511719,
                -1.0054539442062378
            ]
        },
        {
            "name" : "Camera",
            "rotation" : [
                0.483536034822464,
                0.33687159419059753,
                -0.20870360732078552,
                0.7804827094078064
            ],
            "translation" : [
                7.358891487121582,
                4.958309173583984,
                6.925790786743164
            ]
        },
        {
            "mesh" : 0,
            "name" : "building_002",
            "rotation" : [
                0.7071068286895752,
                0,
                0,
                0.7071067094802856
            ],
            "translation" : [
                6.981554985046387,
                8.58238410949707,
                -30.21810531616211
            ]
        }
    ],
    "materials" : [
        {
            "doubleSided" : true,
            "emissiveFactor" : [
                0,
                0,
                0
            ],
            "name" : "lambert2SG",
            "pbrMetallicRoughness" : {
                "baseColorTexture" : {
                    "index" : 0,
                    "texCoord" : 0
                },
                "metallicFactor" : 0,
                "roughnessFactor" : 1
            }
        },
        {
            "alphaMode" : "BLEND",
            "doubleSided" : true,
            "emissiveFactor" : [
                0,
                0,
                0
            ],
            "name" : "lambert3SG",
            "pbrMetallicRoughness" : {
                "baseColorFactor" : [
                    0.029999999329447746,
                    0.029999999329447746,
                    0.029999999329447746,
                    1
                ],
                "metallicFactor" : 0,
                "roughnessFactor" : 1
            }
        },
        {
            "alphaMode" : "BLEND",
            "doubleSided" : true,
            "emissiveFactor" : [
                0,
                0,
                0
            ],
            "name" : "typeBlinn2SG",
            "pbrMetallicRoughness" : {
                "baseColorFactor" : [
                    1,
                    1,
                    1,
                    1
                ],
                "metallicFactor" : 0,
                "roughnessFactor" : 1
            }
        },
        {
            "alphaMode" : "BLEND",
            "doubleSided" : true,
            "emissiveFactor" : [
                0,
                0,
                0
            ],
            "name" : "typeBlinn1SG",
            "pbrMetallicRoughness" : {
                "baseColorFactor" : [
                    1,
                    1,
                    1,
                    1
                ],
                "metallicFactor" : 0,
                "roughnessFactor" : 1
            }
        }
    ],
    "meshes" : [
        {
            "name" : "building_002",
            "primitives" : [
                {
                    "attributes" : {
                        "POSITION" : 0,
                        "NORMAL" : 1,
                        "TEXCOORD_0" : 2
                    },
                    "indices" : 3,
                    "material" : 0
                },
                {
                    "attributes" : {
                        "POSITION" : 4,
                        "NORMAL" : 5,
                        "TEXCOORD_0" : 6
                    },
                    "indices" : 7,
                    "material" : 1
                },
                {
                    "attributes" : {
                        "POSITION" : 8,
                        "NORMAL" : 9,
                        "TEXCOORD_0" : 10
                    },
                    "indices" : 11,
                    "material" : 2
                },
                {
                    "attributes" : {
                        "POSITION" : 12,
                        "NORMAL" : 13,
                        "TEXCOORD_0" : 14
                    },
                    "indices" : 15,
                    "material" : 3
                }
            ]
        }
    ],
    "textures" : [
        {
            "source" : 0
        }
    ],
    "images" : [
        {
            "bufferView" : 4,
            "mimeType" : "image/jpeg",
            "name" : "lkcJpg"
        }
    ],
    "accessors" : [
        {
            "bufferView" : 0,
            "componentType" : 5126,
            "count" : 12351,
            "max" : [
                594.9445190429688,
                240.83753967285156,
                8.750765800476074
            ],
            "min" : [
                -705.6878051757812,
                -871.9654541015625,
                2.210062026977539
            ],
            "type" : "VEC3"
        },
        {
            "bufferView" : 1,
            "componentType" : 5126,
            "count" : 12351,
            "type" : "VEC3"
        },
        {
            "bufferView" : 2,
            "componentType" : 5126,
            "count" : 12351,
            "type" : "VEC2"
        },
        {
            "bufferView" : 3,
            "componentType" : 5123,
            "count" : 23958,
            "type" : "SCALAR"
        },
        {
            "bufferView" : 5,
            "componentType" : 5126,
            "count" : 131,
            "max" : [
                108.82269287109375,
                135.2747802734375,
                8.521331787109375
            ],
            "min" : [
                -87.42604064941406,
                -92.70687103271484,
                8.521331787109375
            ],
            "type" : "VEC3"
        },
        {
            "bufferView" : 6,
            "componentType" : 5126,
            "count" : 131,
            "type" : "VEC3"
        },
        {
            "bufferView" : 7,
            "componentType" : 5126,
            "count" : 131,
            "type" : "VEC2"
        },
        {
            "bufferView" : 8,
            "componentType" : 5123,
            "count" : 222,
            "type" : "SCALAR"
        },
        {
            "bufferView" : 9,
            "componentType" : 5126,
            "count" : 8092,
            "max" : [
                33.482418060302734,
                42.51919937133789,
                8.539260864257812
            ],
            "min" : [
                12.558311462402344,
                -12.855611801147461,
                7.609547138214111
            ],
            "type" : "VEC3"
        },
        {
            "bufferView" : 10,
            "componentType" : 5126,
            "count" : 8092,
            "type" : "VEC3"
        },
        {
            "bufferView" : 11,
            "componentType" : 5126,
            "count" : 8092,
            "type" : "VEC2"
        },
        {
            "bufferView" : 12,
            "componentType" : 5123,
            "count" : 21234,
            "type" : "SCALAR"
        },
        {
            "bufferView" : 13,
            "componentType" : 5126,
            "count" : 14234,
            "max" : [
                -0.22822099924087524,
                42.455421447753906,
                8.569369316101074
            ],
            "min" : [
                -14.232029914855957,
                25.742490768432617,
                2.0651841163635254
            ],
            "type" : "VEC3"
        },
        {
            "bufferView" : 14,
            "componentType" : 5126,
            "count" : 14234,
            "type" : "VEC3"
        },
        {
            "bufferView" : 15,
            "componentType" : 5126,
            "count" : 14234,
            "type" : "VEC2"
        },
        {
            "bufferView" : 16,
            "componentType" : 5123,
            "count" : 35784,
            "type" : "SCALAR"
        }
    ],
    "bufferViews" : [
        {
            "buffer" : 0,
            "byteLength" : 148212,
            "byteOffset" : 0
        },
        {
            "buffer" : 0,
            "byteLength" : 148212,
            "byteOffset" : 148212
        },
        {
            "buffer" : 0,
            "byteLength" : 98808,
            "byteOffset" : 296424
        },
        {
            "buffer" : 0,
            "byteLength" : 47916,
            "byteOffset" : 395232
        },
        {
            "buffer" : 0,
            "byteLength" : 10563,
            "byteOffset" : 443148
        },
        {
            "buffer" : 0,
            "byteLength" : 1572,
            "byteOffset" : 453712
        },
        {
            "buffer" : 0,
            "byteLength" : 1572,
            "byteOffset" : 455284
        },
        {
            "buffer" : 0,
            "byteLength" : 1048,
            "byteOffset" : 456856
        },
        {
            "buffer" : 0,
            "byteLength" : 444,
            "byteOffset" : 457904
        },
        {
            "buffer" : 0,
            "byteLength" : 97104,
            "byteOffset" : 458348
        },
        {
            "buffer" : 0,
            "byteLength" : 97104,
            "byteOffset" : 555452
        },
        {
            "buffer" : 0,
            "byteLength" : 64736,
            "byteOffset" : 652556
        },
        {
            "buffer" : 0,
            "byteLength" : 42468,
            "byteOffset" : 717292
        },
        {
            "buffer" : 0,
            "byteLength" : 170808,
            "byteOffset" : 759760
        },
        {
            "buffer" : 0,
            "byteLength" : 170808,
            "byteOffset" : 930568
        },
        {
            "buffer" : 0,
            "byteLength" : 113872,
            "byteOffset" : 1101376
        },
        {
            "buffer" : 0,
            "byteLength" : 71568,
            "byteOffset" : 1215248
        }
    ],
    "buffers" : [
        {
            "byteLength" : 1286816,
            "uri" : "data:application/octet-stream;base64,"
        }
    ]
}
