{
    "asset" : {
        "generator" : "Khronos glTF Blender I/O v1.2.75",
        "version" : "2.0"
    },
    "scene" : 0,
    "scenes" : [
        {
            "name" : "Scene",
            "nodes" : [
                0,
                1,
                2
            ]
        }
    ],
    "nodes" : [
        {
            "name" : "Light",
            "rotation" : [
                0.16907575726509094,
                0.7558803558349609,
                -0.27217137813568115,
                0.570947527885437
            ],
            "translation" : [
                4.076245307922363,
                5.903861999511719,
                -1.0054539442062378
            ]
        },
        {
            "name" : "Camera",
            "rotation" : [
                0.483536034822464,
                0.33687159419059753,
                -0.20870360732078552,
                0.7804827094078064
            ],
            "translation" : [
                7.358891487121582,
                4.958309173583984,
                6.925790786743164
            ]
        },
        {
            "mesh" : 0,
            "name" : "building_001",
            "rotation" : [
                0.7071068286895752,
                0,
                0,
                0.7071067094802856
            ]
        }
    ],
    "materials" : [
        {
            "emissiveFactor" : [
                0,
                0,
                0
            ],
            "name" : "typeBlinn2SG",
            "pbrMetallicRoughness" : {
                "baseColorFactor" : [
                    1,
                    1,
                    1,
                    1
                ],
                "metallicFactor" : 0,
                "roughnessFactor" : 1
            }
        },
        {
            "emissiveFactor" : [
                0,
                0,
                0
            ],
            "name" : "typeBlinn1SG",
            "pbrMetallicRoughness" : {
                "baseColorFactor" : [
                    1,
                    1,
                    1,
                    1
                ],
                "metallicFactor" : 0,
                "roughnessFactor" : 1
            }
        },
        {
            "doubleSided" : true,
            "emissiveFactor" : [
                0,
                0,
                0
            ],
            "name" : "lambert2SG",
            "pbrMetallicRoughness" : {
                "baseColorTexture" : {
                    "index" : 0,
                    "texCoord" : 0
                },
                "metallicFactor" : 0,
                "roughnessFactor" : 1
            }
        },
        {
            "doubleSided" : true,
            "emissiveFactor" : [
                0,
                0,
                0
            ],
            "name" : "lambert3SG",
            "pbrMetallicRoughness" : {
                "baseColorFactor" : [
                    0.029999999329447746,
                    0.029999999329447746,
                    0.029999999329447746,
                    1
                ],
                "metallicFactor" : 0,
                "roughnessFactor" : 1
            }
        }
    ],
    "meshes" : [
        {
            "name" : "building_001",
            "primitives" : [
                {
                    "attributes" : {
                        "POSITION" : 0,
                        "NORMAL" : 1,
                        "TEXCOORD_0" : 2
                    },
                    "indices" : 3,
                    "material" : 0
                },
                {
                    "attributes" : {
                        "POSITION" : 4,
                        "NORMAL" : 5,
                        "TEXCOORD_0" : 6
                    },
                    "indices" : 7,
                    "material" : 1
                },
                {
                    "attributes" : {
                        "POSITION" : 8,
                        "NORMAL" : 9,
                        "TEXCOORD_0" : 10
                    },
                    "indices" : 11,
                    "material" : 2
                },
                {
                    "attributes" : {
                        "POSITION" : 12,
                        "NORMAL" : 13,
                        "TEXCOORD_0" : 14
                    },
                    "indices" : 15,
                    "material" : 3
                }
            ]
        }
    ],
    "textures" : [
        {
            "source" : 0
        }
    ],
    "images" : [
        {
            "bufferView" : 12,
            "mimeType" : "image/jpeg",
            "name" : "lkcJpg"
        }
    ],
    "accessors" : [
        {
            "bufferView" : 0,
            "componentType" : 5126,
            "count" : 8092,
            "max" : [
                33.482418060302734,
                42.51919937133789,
                8.539260864257812
            ],
            "min" : [
                12.558311462402344,
                -12.855611801147461,
                7.609547138214111
            ],
            "type" : "VEC3"
        },
        {
            "bufferView" : 1,
            "componentType" : 5126,
            "count" : 8092,
            "type" : "VEC3"
        },
        {
            "bufferView" : 2,
            "componentType" : 5126,
            "count" : 8092,
            "type" : "VEC2"
        },
        {
            "bufferView" : 3,
            "componentType" : 5123,
            "count" : 21234,
            "type" : "SCALAR"
        },
        {
            "bufferView" : 4,
            "componentType" : 5126,
            "count" : 14234,
            "max" : [
                -0.22822099924087524,
                42.455421447753906,
                8.569369316101074
            ],
            "min" : [
                -14.232029914855957,
                25.742490768432617,
                2.0651841163635254
            ],
            "type" : "VEC3"
        },
        {
            "bufferView" : 5,
            "componentType" : 5126,
            "count" : 14234,
            "type" : "VEC3"
        },
        {
            "bufferView" : 6,
            "componentType" : 5126,
            "count" : 14234,
            "type" : "VEC2"
        },
        {
            "bufferView" : 7,
            "componentType" : 5123,
            "count" : 35784,
            "type" : "SCALAR"
        },
        {
            "bufferView" : 8,
            "componentType" : 5126,
            "count" : 12449,
            "max" : [
                49.62451171875,
                81.37905883789062,
                8.521331787109375
            ],
            "min" : [
                -54.067649841308594,
                -21.60677719116211,
                2.210062026977539
            ],
            "type" : "VEC3"
        },
        {
            "bufferView" : 9,
            "componentType" : 5126,
            "count" : 12449,
            "type" : "VEC3"
        },
        {
            "bufferView" : 10,
            "componentType" : 5126,
            "count" : 12449,
            "type" : "VEC2"
        },
        {
            "bufferView" : 11,
            "componentType" : 5123,
            "count" : 24138,
            "type" : "SCALAR"
        },
        {
            "bufferView" : 13,
            "componentType" : 5126,
            "count" : 128,
            "max" : [
                49.45172119140625,
                81.37905883789062,
                8.521331787109375
            ],
            "min" : [
                -52.788455963134766,
                -21.60677719116211,
                8.521331787109375
            ],
            "type" : "VEC3"
        },
        {
            "bufferView" : 14,
            "componentType" : 5126,
            "count" : 128,
            "type" : "VEC3"
        },
        {
            "bufferView" : 15,
            "componentType" : 5126,
            "count" : 128,
            "type" : "VEC2"
        },
        {
            "bufferView" : 16,
            "componentType" : 5123,
            "count" : 222,
            "type" : "SCALAR"
        }
    ],
    "bufferViews" : [
        {
            "buffer" : 0,
            "byteLength" : 97104,
            "byteOffset" : 0
        },
        {
            "buffer" : 0,
            "byteLength" : 97104,
            "byteOffset" : 97104
        },
        {
            "buffer" : 0,
            "byteLength" : 64736,
            "byteOffset" : 194208
        },
        {
            "buffer" : 0,
            "byteLength" : 42468,
            "byteOffset" : 258944
        },
        {
            "buffer" : 0,
            "byteLength" : 170808,
            "byteOffset" : 301412
        },
        {
            "buffer" : 0,
            "byteLength" : 170808,
            "byteOffset" : 472220
        },
        {
            "buffer" : 0,
            "byteLength" : 113872,
            "byteOffset" : 643028
        },
        {
            "buffer" : 0,
            "byteLength" : 71568,
            "byteOffset" : 756900
        },
        {
            "buffer" : 0,
            "byteLength" : 149388,
            "byteOffset" : 828468
        },
        {
            "buffer" : 0,
            "byteLength" : 149388,
            "byteOffset" : 977856
        },
        {
            "buffer" : 0,
            "byteLength" : 99592,
            "byteOffset" : 1127244
        },
        {
            "buffer" : 0,
            "byteLength" : 48276,
            "byteOffset" : 1226836
        },
        {
            "buffer" : 0,
            "byteLength" : 10563,
            "byteOffset" : 1275112
        },
        {
            "buffer" : 0,
            "byteLength" : 1536,
            "byteOffset" : 1285676
        },
        {
            "buffer" : 0,
            "byteLength" : 1536,
            "byteOffset" : 1287212
        },
        {
            "buffer" : 0,
            "byteLength" : 1024,
            "byteOffset" : 1288748
        },
        {
            "buffer" : 0,
            "byteLength" : 444,
            "byteOffset" : 1289772
        }
    ],
    "buffers" : [
        {
            "byteLength" : 1290216,
            "uri" : "data:application/octet-stream;base64,"
        }
    ]
}
