{
    "asset" : {
        "generator" : "Khronos glTF Blender I/O v1.2.75",
        "version" : "2.0"
    },
    "scene" : 0,
    "scenes" : [
        {
            "name" : "Scene",
            "nodes" : [
                0,
                1,
                2
            ]
        }
    ],
    "nodes" : [
        {
            "name" : "Light",
            "rotation" : [
                0.16907575726509094,
                0.7558803558349609,
                -0.27217137813568115,
                0.570947527885437
            ],
            "translation" : [
                4.076245307922363,
                5.903861999511719,
                -1.0054539442062378
            ]
        },
        {
            "name" : "Camera",
            "rotation" : [
                0.483536034822464,
                0.33687159419059753,
                -0.20870360732078552,
                0.7804827094078064
            ],
            "translation" : [
                7.358891487121582,
                4.958309173583984,
                6.925790786743164
            ]
        },
        {
            "mesh" : 0,
            "name" : "building_002",
            "rotation" : [
                0.7071068286895752,
                0,
                0,
                0.7071067094802856
            ]
        }
    ],
    "materials" : [
        {
            "doubleSided" : true,
            "emissiveFactor" : [
                0,
                0,
                0
            ],
            "name" : "lambert2SG",
            "pbrMetallicRoughness" : {
                "baseColorTexture" : {
                    "index" : 0,
                    "texCoord" : 0
                },
                "metallicFactor" : 0,
                "roughnessFactor" : 1
            }
        },
        {
            "alphaMode" : "BLEND",
            "doubleSided" : true,
            "emissiveFactor" : [
                0,
                0,
                0
            ],
            "name" : "lambert3SG",
            "pbrMetallicRoughness" : {
                "baseColorFactor" : [
                    0.029999999329447746,
                    0.029999999329447746,
                    0.029999999329447746,
                    1
                ],
                "metallicFactor" : 0,
                "roughnessFactor" : 1
            }
        },
        {
            "alphaMode" : "BLEND",
            "doubleSided" : true,
            "emissiveFactor" : [
                0,
                0,
                0
            ],
            "name" : "typeBlinn2SG",
            "pbrMetallicRoughness" : {
                "baseColorFactor" : [
                    1,
                    1,
                    1,
                    1
                ],
                "metallicFactor" : 0,
                "roughnessFactor" : 1
            }
        },
        {
            "alphaMode" : "BLEND",
            "doubleSided" : true,
            "emissiveFactor" : [
                0,
                0,
                0
            ],
            "name" : "typeBlinn1SG",
            "pbrMetallicRoughness" : {
                "baseColorFactor" : [
                    1,
                    1,
                    1,
                    1
                ],
                "metallicFactor" : 0,
                "roughnessFactor" : 1
            }
        }
    ],
    "meshes" : [
        {
            "name" : "building_002",
            "primitives" : [
                {
                    "attributes" : {
                        "POSITION" : 0,
                        "NORMAL" : 1,
                        "TEXCOORD_0" : 2
                    },
                    "indices" : 3,
                    "material" : 0
                },
                {
                    "attributes" : {
                        "POSITION" : 4,
                        "NORMAL" : 5,
                        "TEXCOORD_0" : 6
                    },
                    "indices" : 7,
                    "material" : 1
                },
                {
                    "attributes" : {
                        "POSITION" : 8,
                        "NORMAL" : 9,
                        "TEXCOORD_0" : 10
                    },
                    "indices" : 11,
                    "material" : 2
                },
                {
                    "attributes" : {
                        "POSITION" : 12,
                        "NORMAL" : 13,
                        "TEXCOORD_0" : 14
                    },
                    "indices" : 15,
                    "material" : 3
                }
            ]
        }
    ],
    "textures" : [
        {
            "source" : 0
        }
    ],
    "images" : [
        {
            "bufferView" : 4,
            "mimeType" : "image/jpeg",
            "name" : "lkcJpg"
        }
    ],
    "accessors" : [
        {
            "bufferView" : 0,
            "componentType" : 5126,
            "count" : 12351,
            "max" : [
                400.04736328125,
                147.87350463867188,
                0.11909748613834381
            ],
            "min" : [
                -397.4725341796875,
                -600.156494140625,
                -6.42155647277832
            ],
            "type" : "VEC3"
        },
        {
            "bufferView" : 1,
            "componentType" : 5126,
            "count" : 12351,
            "type" : "VEC3"
        },
        {
            "bufferView" : 2,
            "componentType" : 5126,
            "count" : 12351,
            "type" : "VEC2"
        },
        {
            "bufferView" : 3,
            "componentType" : 5123,
            "count" : 23958,
            "type" : "SCALAR"
        },
        {
            "bufferView" : 5,
            "componentType" : 5126,
            "count" : 134,
            "max" : [
                115.9188461303711,
                104.85027313232422,
                -0.11028671264648438
            ],
            "min" : [
                -80.32988739013672,
                -123.13137817382812,
                -0.11028671264648438
            ],
            "type" : "VEC3"
        },
        {
            "bufferView" : 6,
            "componentType" : 5126,
            "count" : 134,
            "type" : "VEC3"
        },
        {
            "bufferView" : 7,
            "componentType" : 5126,
            "count" : 134,
            "type" : "VEC2"
        },
        {
            "bufferView" : 8,
            "componentType" : 5123,
            "count" : 222,
            "type" : "SCALAR"
        },
        {
            "bufferView" : 9,
            "componentType" : 5126,
            "count" : 8092,
            "max" : [
                40.578575134277344,
                12.09469223022461,
                -0.09235763549804688
            ],
            "min" : [
                19.654468536376953,
                -43.280120849609375,
                -1.022071361541748
            ],
            "type" : "VEC3"
        },
        {
            "bufferView" : 10,
            "componentType" : 5126,
            "count" : 8092,
            "type" : "VEC3"
        },
        {
            "bufferView" : 11,
            "componentType" : 5126,
            "count" : 8092,
            "type" : "VEC2"
        },
        {
            "bufferView" : 12,
            "componentType" : 5123,
            "count" : 21234,
            "type" : "SCALAR"
        },
        {
            "bufferView" : 13,
            "componentType" : 5126,
            "count" : 14234,
            "max" : [
                6.8679351806640625,
                12.030914306640625,
                -0.062249183654785156
            ],
            "min" : [
                -7.135873794555664,
                -4.682016372680664,
                -6.566434383392334
            ],
            "type" : "VEC3"
        },
        {
            "bufferView" : 14,
            "componentType" : 5126,
            "count" : 14234,
            "type" : "VEC3"
        },
        {
            "bufferView" : 15,
            "componentType" : 5126,
            "count" : 14234,
            "type" : "VEC2"
        },
        {
            "bufferView" : 16,
            "componentType" : 5123,
            "count" : 35784,
            "type" : "SCALAR"
        }
    ],
    "bufferViews" : [
        {
            "buffer" : 0,
            "byteLength" : 148212,
            "byteOffset" : 0
        },
        {
            "buffer" : 0,
            "byteLength" : 148212,
            "byteOffset" : 148212
        },
        {
            "buffer" : 0,
            "byteLength" : 98808,
            "byteOffset" : 296424
        },
        {
            "buffer" : 0,
            "byteLength" : 47916,
            "byteOffset" : 395232
        },
        {
            "buffer" : 0,
            "byteLength" : 10563,
            "byteOffset" : 443148
        },
        {
            "buffer" : 0,
            "byteLength" : 1608,
            "byteOffset" : 453712
        },
        {
            "buffer" : 0,
            "byteLength" : 1608,
            "byteOffset" : 455320
        },
        {
            "buffer" : 0,
            "byteLength" : 1072,
            "byteOffset" : 456928
        },
        {
            "buffer" : 0,
            "byteLength" : 444,
            "byteOffset" : 458000
        },
        {
            "buffer" : 0,
            "byteLength" : 97104,
            "byteOffset" : 458444
        },
        {
            "buffer" : 0,
            "byteLength" : 97104,
            "byteOffset" : 555548
        },
        {
            "buffer" : 0,
            "byteLength" : 64736,
            "byteOffset" : 652652
        },
        {
            "buffer" : 0,
            "byteLength" : 42468,
            "byteOffset" : 717388
        },
        {
            "buffer" : 0,
            "byteLength" : 170808,
            "byteOffset" : 759856
        },
        {
            "buffer" : 0,
            "byteLength" : 170808,
            "byteOffset" : 930664
        },
        {
            "buffer" : 0,
            "byteLength" : 113872,
            "byteOffset" : 1101472
        },
        {
            "buffer" : 0,
            "byteLength" : 71568,
            "byteOffset" : 1215344
        }
    ],
    "buffers" : [
        {
            "byteLength" : 1286912,
            "uri" : "data:application/octet-stream;base64,"
        }
    ]
}
