{
    "asset" : {
        "generator" : "Khronos glTF Blender I/O v1.2.75",
        "version" : "2.0"
    },
    "scene" : 0,
    "scenes" : [
        {
            "name" : "Scene",
            "nodes" : [
                0,
                1,
                2
            ]
        }
    ],
    "nodes" : [
        {
            "name" : "Light",
            "rotation" : [
                0.16907575726509094,
                0.7558803558349609,
                -0.27217137813568115,
                0.570947527885437
            ],
            "translation" : [
                4.076245307922363,
                5.903861999511719,
                -1.0054539442062378
            ]
        },
        {
            "name" : "Camera",
            "rotation" : [
                0.483536034822464,
                0.33687159419059753,
                -0.20870360732078552,
                0.7804827094078064
            ],
            "translation" : [
                7.358891487121582,
                4.958309173583984,
                6.925790786743164
            ]
        },
        {
            "mesh" : 0,
            "name" : "building",
            "rotation" : [
                0.7071068286895752,
                0,
                0,
                0.7071067094802856
            ]
        }
    ],
    "materials" : [
        {
            "alphaMode" : "BLEND",
            "doubleSided" : true,
            "emissiveFactor" : [
                0,
                0,
                0
            ],
            "name" : "typeBlinn1SG",
            "pbrMetallicRoughness" : {
                "baseColorFactor" : [
                    1,
                    1,
                    1,
                    1
                ],
                "metallicFactor" : 0,
                "roughnessFactor" : 1
            }
        },
        {
            "alphaMode" : "BLEND",
            "doubleSided" : true,
            "emissiveFactor" : [
                0,
                0,
                0
            ],
            "name" : "lambert2SG",
            "pbrMetallicRoughness" : {
                "baseColorTexture" : {
                    "index" : 0,
                    "texCoord" : 0
                },
                "metallicFactor" : 0,
                "roughnessFactor" : 1
            }
        },
        {
            "alphaMode" : "BLEND",
            "doubleSided" : true,
            "emissiveFactor" : [
                0,
                0,
                0
            ],
            "name" : "lambert3SG",
            "pbrMetallicRoughness" : {
                "baseColorFactor" : [
                    0.029999999329447746,
                    0.029999999329447746,
                    0.029999999329447746,
                    1
                ],
                "metallicFactor" : 0,
                "roughnessFactor" : 1
            }
        },
        {
            "alphaMode" : "BLEND",
            "doubleSided" : true,
            "emissiveFactor" : [
                0,
                0,
                0
            ],
            "name" : "typeBlinn2SG",
            "pbrMetallicRoughness" : {
                "baseColorFactor" : [
                    1,
                    1,
                    1,
                    1
                ],
                "metallicFactor" : 0,
                "roughnessFactor" : 1
            }
        }
    ],
    "meshes" : [
        {
            "name" : "building",
            "primitives" : [
                {
                    "attributes" : {
                        "POSITION" : 0,
                        "NORMAL" : 1,
                        "TEXCOORD_0" : 2
                    },
                    "indices" : 3,
                    "material" : 0
                },
                {
                    "attributes" : {
                        "POSITION" : 4,
                        "NORMAL" : 5,
                        "TEXCOORD_0" : 6
                    },
                    "indices" : 7,
                    "material" : 1
                },
                {
                    "attributes" : {
                        "POSITION" : 8,
                        "NORMAL" : 9,
                        "TEXCOORD_0" : 10
                    },
                    "indices" : 11,
                    "material" : 2
                },
                {
                    "attributes" : {
                        "POSITION" : 12,
                        "NORMAL" : 13,
                        "TEXCOORD_0" : 14
                    },
                    "indices" : 15,
                    "material" : 3
                }
            ]
        }
    ],
    "textures" : [
        {
            "source" : 0
        }
    ],
    "images" : [
        {
            "bufferView" : 8,
            "mimeType" : "image/png",
            "name" : "lkcBuilding_stylized_02"
        }
    ],
    "accessors" : [
        {
            "bufferView" : 0,
            "componentType" : 5126,
            "count" : 14234,
            "max" : [
                -0.22822099924087524,
                42.455421447753906,
                8.569369316101074
            ],
            "min" : [
                -14.232029914855957,
                25.742490768432617,
                2.0651841163635254
            ],
            "type" : "VEC3"
        },
        {
            "bufferView" : 1,
            "componentType" : 5126,
            "count" : 14234,
            "type" : "VEC3"
        },
        {
            "bufferView" : 2,
            "componentType" : 5126,
            "count" : 14234,
            "type" : "VEC2"
        },
        {
            "bufferView" : 3,
            "componentType" : 5123,
            "count" : 35784,
            "type" : "SCALAR"
        },
        {
            "bufferView" : 4,
            "componentType" : 5126,
            "count" : 12449,
            "max" : [
                49.62451171875,
                81.37905883789062,
                8.521331787109375
            ],
            "min" : [
                -54.067649841308594,
                -21.60677719116211,
                2.210062026977539
            ],
            "type" : "VEC3"
        },
        {
            "bufferView" : 5,
            "componentType" : 5126,
            "count" : 12449,
            "type" : "VEC3"
        },
        {
            "bufferView" : 6,
            "componentType" : 5126,
            "count" : 12449,
            "type" : "VEC2"
        },
        {
            "bufferView" : 7,
            "componentType" : 5123,
            "count" : 24138,
            "type" : "SCALAR"
        },
        {
            "bufferView" : 9,
            "componentType" : 5126,
            "count" : 128,
            "max" : [
                49.45172119140625,
                81.37905883789062,
                8.521331787109375
            ],
            "min" : [
                -52.788455963134766,
                -21.60677719116211,
                8.521331787109375
            ],
            "type" : "VEC3"
        },
        {
            "bufferView" : 10,
            "componentType" : 5126,
            "count" : 128,
            "type" : "VEC3"
        },
        {
            "bufferView" : 11,
            "componentType" : 5126,
            "count" : 128,
            "type" : "VEC2"
        },
        {
            "bufferView" : 12,
            "componentType" : 5123,
            "count" : 222,
            "type" : "SCALAR"
        },
        {
            "bufferView" : 13,
            "componentType" : 5126,
            "count" : 5492,
            "max" : [
                32.35045623779297,
                34.47547912597656,
                8.539260864257812
            ],
            "min" : [
                12.558311462402344,
                -12.855611801147461,
                8.439261436462402
            ],
            "type" : "VEC3"
        },
        {
            "bufferView" : 14,
            "componentType" : 5126,
            "count" : 5492,
            "type" : "VEC3"
        },
        {
            "bufferView" : 15,
            "componentType" : 5126,
            "count" : 5492,
            "type" : "VEC2"
        },
        {
            "bufferView" : 16,
            "componentType" : 5123,
            "count" : 14490,
            "type" : "SCALAR"
        }
    ],
    "bufferViews" : [
        {
            "buffer" : 0,
            "byteLength" : 170808,
            "byteOffset" : 0
        },
        {
            "buffer" : 0,
            "byteLength" : 170808,
            "byteOffset" : 170808
        },
        {
            "buffer" : 0,
            "byteLength" : 113872,
            "byteOffset" : 341616
        },
        {
            "buffer" : 0,
            "byteLength" : 71568,
            "byteOffset" : 455488
        },
        {
            "buffer" : 0,
            "byteLength" : 149388,
            "byteOffset" : 527056
        },
        {
            "buffer" : 0,
            "byteLength" : 149388,
            "byteOffset" : 676444
        },
        {
            "buffer" : 0,
            "byteLength" : 99592,
            "byteOffset" : 825832
        },
        {
            "buffer" : 0,
            "byteLength" : 48276,
            "byteOffset" : 925424
        },
        {
            "buffer" : 0,
            "byteLength" : 602763,
            "byteOffset" : 973700
        },
        {
            "buffer" : 0,
            "byteLength" : 1536,
            "byteOffset" : 1576464
        },
        {
            "buffer" : 0,
            "byteLength" : 1536,
            "byteOffset" : 1578000
        },
        {
            "buffer" : 0,
            "byteLength" : 1024,
            "byteOffset" : 1579536
        },
        {
            "buffer" : 0,
            "byteLength" : 444,
            "byteOffset" : 1580560
        },
        {
            "buffer" : 0,
            "byteLength" : 65904,
            "byteOffset" : 1581004
        },
        {
            "buffer" : 0,
            "byteLength" : 65904,
            "byteOffset" : 1646908
        },
        {
            "buffer" : 0,
            "byteLength" : 43936,
            "byteOffset" : 1712812
        },
        {
            "buffer" : 0,
            "byteLength" : 28980,
            "byteOffset" : 1756748
        }
    ],
    "buffers" : [
        {
            "byteLength" : 1785728,
            "uri" : "data:application/octet-stream;base64,"
        }
    ]
}
