{
    "asset" : {
        "generator" : "Khronos glTF Blender I/O v1.2.75",
        "version" : "2.0"
    },
    "scene" : 0,
    "scenes" : [
        {
            "name" : "Scene",
            "nodes" : [
                0,
                1,
                2
            ]
        }
    ],
    "nodes" : [
        {
            "name" : "Light",
            "rotation" : [
                0.16907575726509094,
                0.7558803558349609,
                -0.27217137813568115,
                0.570947527885437
            ],
            "translation" : [
                4.076245307922363,
                5.903861999511719,
                -1.0054539442062378
            ]
        },
        {
            "name" : "Camera",
            "rotation" : [
                0.483536034822464,
                0.33687159419059753,
                -0.20870360732078552,
                0.7804827094078064
            ],
            "translation" : [
                7.358891487121582,
                4.958309173583984,
                6.925790786743164
            ]
        },
        {
            "mesh" : 0,
            "name" : "building_002",
            "rotation" : [
                0.7071068286895752,
                0,
                0,
                0.7071067094802856
            ]
        }
    ],
    "materials" : [
        {
            "doubleSided" : true,
            "emissiveFactor" : [
                0,
                0,
                0
            ],
            "name" : "lambert2SG",
            "pbrMetallicRoughness" : {
                "baseColorTexture" : {
                    "index" : 0,
                    "texCoord" : 0
                },
                "metallicFactor" : 0,
                "roughnessFactor" : 1
            }
        },
        {
            "alphaMode" : "BLEND",
            "doubleSided" : true,
            "emissiveFactor" : [
                0,
                0,
                0
            ],
            "name" : "lambert3SG",
            "pbrMetallicRoughness" : {
                "baseColorFactor" : [
                    0.029999999329447746,
                    0.029999999329447746,
                    0.029999999329447746,
                    1
                ],
                "metallicFactor" : 0,
                "roughnessFactor" : 1
            }
        },
        {
            "alphaMode" : "BLEND",
            "doubleSided" : true,
            "emissiveFactor" : [
                0,
                0,
                0
            ],
            "name" : "typeBlinn2SG",
            "pbrMetallicRoughness" : {
                "baseColorFactor" : [
                    1,
                    1,
                    1,
                    1
                ],
                "metallicFactor" : 0,
                "roughnessFactor" : 1
            }
        },
        {
            "alphaMode" : "BLEND",
            "doubleSided" : true,
            "emissiveFactor" : [
                0,
                0,
                0
            ],
            "name" : "typeBlinn1SG",
            "pbrMetallicRoughness" : {
                "baseColorFactor" : [
                    1,
                    1,
                    1,
                    1
                ],
                "metallicFactor" : 0,
                "roughnessFactor" : 1
            }
        }
    ],
    "meshes" : [
        {
            "name" : "building_002",
            "primitives" : [
                {
                    "attributes" : {
                        "POSITION" : 0,
                        "NORMAL" : 1,
                        "TEXCOORD_0" : 2
                    },
                    "indices" : 3,
                    "material" : 0
                },
                {
                    "attributes" : {
                        "POSITION" : 4,
                        "NORMAL" : 5,
                        "TEXCOORD_0" : 6
                    },
                    "indices" : 7,
                    "material" : 1
                },
                {
                    "attributes" : {
                        "POSITION" : 8,
                        "NORMAL" : 9,
                        "TEXCOORD_0" : 10
                    },
                    "indices" : 11,
                    "material" : 2
                },
                {
                    "attributes" : {
                        "POSITION" : 12,
                        "NORMAL" : 13,
                        "TEXCOORD_0" : 14
                    },
                    "indices" : 15,
                    "material" : 3
                }
            ]
        }
    ],
    "textures" : [
        {
            "source" : 0
        }
    ],
    "images" : [
        {
            "bufferView" : 4,
            "mimeType" : "image/jpeg",
            "name" : "lkcJpg"
        }
    ],
    "accessors" : [
        {
            "bufferView" : 0,
            "componentType" : 5126,
            "count" : 12358,
            "max" : [
                150.89256286621094,
                153.1672821044922,
                -0.10022163391113281
            ],
            "min" : [
                -151.315185546875,
                -133.8186798095703,
                -6.640800476074219
            ],
            "type" : "VEC3"
        },
        {
            "bufferView" : 1,
            "componentType" : 5126,
            "count" : 12358,
            "type" : "VEC3"
        },
        {
            "bufferView" : 2,
            "componentType" : 5126,
            "count" : 12358,
            "type" : "VEC2"
        },
        {
            "bufferView" : 3,
            "componentType" : 5123,
            "count" : 23958,
            "type" : "SCALAR"
        },
        {
            "bufferView" : 5,
            "componentType" : 5126,
            "count" : 130,
            "max" : [
                116.71324157714844,
                110.14405059814453,
                -0.3295307159423828
            ],
            "min" : [
                -79.53549194335938,
                -117.83760070800781,
                -0.3295307159423828
            ],
            "type" : "VEC3"
        },
        {
            "bufferView" : 6,
            "componentType" : 5126,
            "count" : 130,
            "type" : "VEC3"
        },
        {
            "bufferView" : 7,
            "componentType" : 5126,
            "count" : 130,
            "type" : "VEC2"
        },
        {
            "bufferView" : 8,
            "componentType" : 5123,
            "count" : 222,
            "type" : "SCALAR"
        },
        {
            "bufferView" : 9,
            "componentType" : 5126,
            "count" : 8092,
            "max" : [
                41.37296676635742,
                17.38846778869629,
                -0.3116016387939453
            ],
            "min" : [
                20.44886016845703,
                -37.98634338378906,
                -1.2413153648376465
            ],
            "type" : "VEC3"
        },
        {
            "bufferView" : 10,
            "componentType" : 5126,
            "count" : 8092,
            "type" : "VEC3"
        },
        {
            "bufferView" : 11,
            "componentType" : 5126,
            "count" : 8092,
            "type" : "VEC2"
        },
        {
            "bufferView" : 12,
            "componentType" : 5123,
            "count" : 21234,
            "type" : "SCALAR"
        },
        {
            "bufferView" : 13,
            "componentType" : 5126,
            "count" : 14234,
            "max" : [
                7.662327766418457,
                17.324689865112305,
                -0.2814931869506836
            ],
            "min" : [
                -6.3414812088012695,
                0.6117591857910156,
                -6.785678386688232
            ],
            "type" : "VEC3"
        },
        {
            "bufferView" : 14,
            "componentType" : 5126,
            "count" : 14234,
            "type" : "VEC3"
        },
        {
            "bufferView" : 15,
            "componentType" : 5126,
            "count" : 14234,
            "type" : "VEC2"
        },
        {
            "bufferView" : 16,
            "componentType" : 5123,
            "count" : 35784,
            "type" : "SCALAR"
        }
    ],
    "bufferViews" : [
        {
            "buffer" : 0,
            "byteLength" : 148296,
            "byteOffset" : 0
        },
        {
            "buffer" : 0,
            "byteLength" : 148296,
            "byteOffset" : 148296
        },
        {
            "buffer" : 0,
            "byteLength" : 98864,
            "byteOffset" : 296592
        },
        {
            "buffer" : 0,
            "byteLength" : 47916,
            "byteOffset" : 395456
        },
        {
            "buffer" : 0,
            "byteLength" : 10563,
            "byteOffset" : 443372
        },
        {
            "buffer" : 0,
            "byteLength" : 1560,
            "byteOffset" : 453936
        },
        {
            "buffer" : 0,
            "byteLength" : 1560,
            "byteOffset" : 455496
        },
        {
            "buffer" : 0,
            "byteLength" : 1040,
            "byteOffset" : 457056
        },
        {
            "buffer" : 0,
            "byteLength" : 444,
            "byteOffset" : 458096
        },
        {
            "buffer" : 0,
            "byteLength" : 97104,
            "byteOffset" : 458540
        },
        {
            "buffer" : 0,
            "byteLength" : 97104,
            "byteOffset" : 555644
        },
        {
            "buffer" : 0,
            "byteLength" : 64736,
            "byteOffset" : 652748
        },
        {
            "buffer" : 0,
            "byteLength" : 42468,
            "byteOffset" : 717484
        },
        {
            "buffer" : 0,
            "byteLength" : 170808,
            "byteOffset" : 759952
        },
        {
            "buffer" : 0,
            "byteLength" : 170808,
            "byteOffset" : 930760
        },
        {
            "buffer" : 0,
            "byteLength" : 113872,
            "byteOffset" : 1101568
        },
        {
            "buffer" : 0,
            "byteLength" : 71568,
            "byteOffset" : 1215440
        }
    ],
    "buffers" : [
        {
            "byteLength" : 1287008,
            "uri" : "data:application/octet-stream;base64,"
        }
    ]
}
