{"accessors" : [{"bufferView" : 0, "byteOffset" : 0, "componentType" : 5123, "count" : 9045, "type" : "SCALAR", "max" : [3717], "min" : [0]}, {"bufferView" : 1, "byteOffset" : 0, "componentType" : 5126, "count" : 3718, "type" : "VEC3", "max" : [-1.1621220111846924, -8.469368934631348, 42.455421447753906], "min" : [-12.865307807922363, -8.569369316101074, 41.7932243347168], "name" : "POSITION"}, {"bufferView" : 1, "byteOffset" : 12, "componentType" : 5126, "count" : 3718, "type" : "VEC2", "max" : [0.9831349849700928, -0.0019920000340789557], "min" : [0.001962000038474798, -0.9980080127716064], "name" : "TEXCOORD_0"}, {"bufferView" : 1, "byteOffset" : 20, "componentType" : 5126, "count" : 3718, "type" : "VEC3", "max" : [1.0000044107437134, 1.0000044107437134, 1.0000044107437134], "min" : [-1.0000044107437134, -1.0000044107437134, -1.0000044107437134], "name" : "NORMAL"}, {"bufferView" : 0, "byteOffset" : 18092, "componentType" : 5123, "count" : 30, "type" : "SCALAR", "max" : [21], "min" : [0]}, {"bufferView" : 2, "byteOffset" : 0, "componentType" : 5126, "count" : 22, "type" : "VEC3", "max" : [49.62451171875, -8.521331787109375, 81.37905883789062], "min" : [14.268776893615723, -8.521331787109375, -21.60677719116211], "name" : "POSITION"}, {"bufferView" : 2, "byteOffset" : 12, "componentType" : 5126, "count" : 22, "type" : "VEC2", "max" : [0.7001870274543762, -0.17107699811458588], "min" : [0.36379098892211914, -0.479779988527298], "name" : "TEXCOORD_0"}, {"bufferView" : 2, "byteOffset" : 20, "componentType" : 5126, "count" : 22, "type" : "VEC3", "max" : [0, 1.0000044107437134, 0], "min" : [0, 1.0000044107437134, -1.0000043175750761E-06], "name" : "NORMAL"}, {"bufferView" : 0, "byteOffset" : 18152, "componentType" : 5123, "count" : 99, "type" : "SCALAR", "max" : [66], "min" : [0]}, {"bufferView" : 3, "byteOffset" : 0, "componentType" : 5126, "count" : 67, "type" : "VEC3", "max" : [12.097004890441895, -8.521331787109375, 81.37905883789062], "min" : [-54.067649841308594, -8.521331787109375, 41.087860107421875], "name" : "POSITION"}, {"bufferView" : 3, "byteOffset" : 12, "componentType" : 5126, "count" : 67, "type" : "VEC2", "max" : [0.6772580146789551, -0.03485099971294403], "min" : [0.36082300543785095, -0.4773379862308502], "name" : "TEXCOORD_0"}, {"bufferView" : 3, "byteOffset" : 20, "componentType" : 5126, "count" : 67, "type" : "VEC3", "max" : [0, 1.0000044107437134, 3.000013066412066E-06], "min" : [0, 1.0000044107437134, -4.0000172703003045E-06], "name" : "NORMAL"}, {"bufferView" : 0, "byteOffset" : 18352, "componentType" : 5123, "count" : 222, "type" : "SCALAR", "max" : [149], "min" : [0]}, {"bufferView" : 4, "byteOffset" : 0, "componentType" : 5126, "count" : 150, "type" : "VEC3", "max" : [49.45172119140625, -8.521331787109375, 81.37905883789062], "min" : [-52.788455963134766, -8.521331787109375, -21.60677719116211], "name" : "POSITION"}, {"bufferView" : 4, "byteOffset" : 12, "componentType" : 5126, "count" : 150, "type" : "VEC2", "max" : [0.8364319801330566, -0.0019920000340789557], "min" : [0.0016700000269338489, -0.9980080127716064], "name" : "TEXCOORD_0"}, {"bufferView" : 4, "byteOffset" : 20, "componentType" : 5126, "count" : 150, "type" : "VEC3", "max" : [0, 1.0000044107437134, 1.0000043175750761E-06], "min" : [0, 1.0000044107437134, -1.0000043175750761E-06], "name" : "NORMAL"}, {"bufferView" : 0, "byteOffset" : 18796, "componentType" : 5123, "count" : 81, "type" : "SCALAR", "max" : [44], "min" : [0]}, {"bufferView" : 5, "byteOffset" : 0, "componentType" : 5126, "count" : 45, "type" : "VEC3", "max" : [11.990974426269531, -8.521331787109375, 44.9083137512207], "min" : [-52.788455963134766, -8.521331787109375, -20.481525421142578], "name" : "POSITION"}, {"bufferView" : 5, "byteOffset" : 12, "componentType" : 5126, "count" : 45, "type" : "VEC2", "max" : [0.9736260175704956, -0.050586998462677], "min" : [0.3634890019893646, -0.6545479893684387], "name" : "TEXCOORD_0"}, {"bufferView" : 5, "byteOffset" : 20, "componentType" : 5126, "count" : 45, "type" : "VEC3", "max" : [0, 1.0000044107437134, -0], "min" : [0, 1.0000044107437134, -0], "name" : "NORMAL"}, {"bufferView" : 0, "byteOffset" : 18960, "componentType" : 5123, "count" : 996, "type" : "SCALAR", "max" : [645], "min" : [0]}, {"bufferView" : 6, "byteOffset" : 0, "componentType" : 5126, "count" : 646, "type" : "VEC3", "max" : [0.5904920101165771, -2.210062026977539, 37.19826126098633], "min" : [-15.543167114257812, -8.521331787109375, 29.738712310791016], "name" : "POSITION"}, {"bufferView" : 6, "byteOffset" : 12, "componentType" : 5126, "count" : 646, "type" : "VEC2", "max" : [1.930719017982483, -0.01535400003194809], "min" : [0.11684200167655945, -1.0113699436187744], "name" : "TEXCOORD_0"}, {"bufferView" : 6, "byteOffset" : 20, "componentType" : 5126, "count" : 646, "type" : "VEC3", "max" : [1.0000044107437134, 1.0000044107437134, 1.0000044107437134], "min" : [-1.0000044107437134, -1.0000044107437134, -1.0000044107437134], "name" : "NORMAL"}, {"bufferView" : 0, "byteOffset" : 20952, "componentType" : 5123, "count" : 17571, "type" : "SCALAR", "max" : [7003], "min" : [0]}, {"bufferView" : 7, "byteOffset" : 0, "componentType" : 5126, "count" : 7004, "type" : "VEC3", "max" : [-2.6899120807647705, -2.6580300331115723, 27.54874610900879], "min" : [-12.394392013549805, -2.7580299377441406, 25.742490768432617], "name" : "POSITION"}, {"bufferView" : 7, "byteOffset" : 12, "componentType" : 5126, "count" : 7004, "type" : "VEC2", "max" : [0.9748669862747192, -0.0019920000340789557], "min" : [0.0019460000330582261, -0.9980080127716064], "name" : "TEXCOORD_0"}, {"bufferView" : 7, "byteOffset" : 20, "componentType" : 5126, "count" : 7004, "type" : "VEC3", "max" : [1.0000044107437134, 1.0000044107437134, 1.0000044107437134], "min" : [-1.0000044107437134, -1.0000044107437134, -1.0000044107437134], "name" : "NORMAL"}, {"bufferView" : 0, "byteOffset" : 56096, "componentType" : 5123, "count" : 9441, "type" : "SCALAR", "max" : [3895], "min" : [0]}, {"bufferView" : 8, "byteOffset" : 0, "componentType" : 5126, "count" : 3896, "type" : "VEC3", "max" : [-0.22822099924087524, -2.0651841163635254, 33.58374786376953], "min" : [-14.232029914855957, -2.1651840209960938, 32.931640625], "name" : "POSITION"}, {"bufferView" : 8, "byteOffset" : 12, "componentType" : 5126, "count" : 3896, "type" : "VEC2", "max" : [0.9980080127716064, -0.0019600000232458115], "min" : [0.0019920000340789557, -0.9817500114440918], "name" : "TEXCOORD_0"}, {"bufferView" : 8, "byteOffset" : 20, "componentType" : 5126, "count" : 3896, "type" : "VEC3", "max" : [1.0000044107437134, 1.0000044107437134, 1.0000044107437134], "min" : [-1.0000044107437134, -1.0000044107437134, -1.0000044107437134], "name" : "NORMAL"}, {"bufferView" : 0, "byteOffset" : 74980, "componentType" : 5123, "count" : 7437, "type" : "SCALAR", "max" : [1267], "min" : [0]}, {"bufferView" : 9, "byteOffset" : 0, "componentType" : 5126, "count" : 1268, "type" : "VEC3", "max" : [32.35045623779297, -8.439261436462402, -9.129939079284668], "min" : [27.11102867126465, -8.539260864257812, -12.855611801147461], "name" : "POSITION"}, {"bufferView" : 0, "byteOffset" : 89856, "componentType" : 5123, "count" : 6957, "type" : "SCALAR", "max" : [1183], "min" : [0]}, {"bufferView" : 10, "byteOffset" : 0, "componentType" : 5126, "count" : 1184, "type" : "VEC3", "max" : [13.354889869689941, -8.439261436462402, 34.47547912597656], "min" : [12.558311462402344, -8.539260864257812, 28.591232299804688], "name" : "POSITION"}, {"bufferView" : 0, "byteOffset" : 103772, "componentType" : 5123, "count" : 22932, "type" : "SCALAR", "max" : [12088], "min" : [0]}, {"bufferView" : 11, "byteOffset" : 0, "componentType" : 5126, "count" : 12089, "type" : "VEC3", "max" : [10.062887191772461, -2.6922500133514404, 35.03854751586914], "min" : [-25.108463287353516, -8.521331787109375, 24.65205955505371], "name" : "POSITION"}, {"bufferView" : 11, "byteOffset" : 12, "componentType" : 5126, "count" : 12089, "type" : "VEC2", "max" : [0.9966449737548828, -0.006479999981820583], "min" : [0.010743999853730202, -0.9924629926681519], "name" : "TEXCOORD_0"}, {"bufferView" : 11, "byteOffset" : 20, "componentType" : 5126, "count" : 12089, "type" : "VEC3", "max" : [1.0000044107437134, 1.0000044107437134, 1.0000044107437134], "min" : [-1.0000044107437134, -1.0000044107437134, -1.0000044107437134], "name" : "NORMAL"}], "asset" : {"generator" : "Aspose.3D 21.3.1", "version" : "2.0"}, "buffers" : [{"uri" : "buffer.bin", "byteLength" : 2255756}], "bufferViews" : [{"buffer" : 0, "byteOffset" : 0, "byteLength" : 149636, "target" : 34963}, {"buffer" : 0, "byteOffset" : 149640, "byteLength" : 289440, "byteStride" : 32, "target" : 34962}, {"buffer" : 0, "byteOffset" : 439084, "byteLength" : 960, "byteStride" : 32, "target" : 34962}, {"buffer" : 0, "byteOffset" : 440048, "byteLength" : 3168, "byteStride" : 32, "target" : 34962}, {"buffer" : 0, "byteOffset" : 443220, "byteLength" : 7104, "byteStride" : 32, "target" : 34962}, {"buffer" : 0, "byteOffset" : 450328, "byteLength" : 2592, "byteStride" : 32, "target" : 34962}, {"buffer" : 0, "byteOffset" : 452924, "byteLength" : 31872, "byteStride" : 32, "target" : 34962}, {"buffer" : 0, "byteOffset" : 484800, "byteLength" : 562272, "byteStride" : 32, "target" : 34962}, {"buffer" : 0, "byteOffset" : 1047076, "byteLength" : 302112, "byteStride" : 32, "target" : 34962}, {"buffer" : 0, "byteOffset" : 1349192, "byteLength" : 89244, "byteStride" : 12, "target" : 34962}, {"buffer" : 0, "byteOffset" : 1438440, "byteLength" : 83484, "byteStride" : 12, "target" : 34962}, {"buffer" : 0, "byteOffset" : 1521928, "byteLength" : 733824, "byteStride" : 32, "target" : 34962}], "meshes" : [{"primitives" : [{"attributes" : {"POSITION" : 1, "TEXCOORD_0" : 2, "NORMAL" : 3}, "indices" : 0, "mode" : 4}]}, {"primitives" : [{"attributes" : {"POSITION" : 5, "TEXCOORD_0" : 6, "NORMAL" : 7}, "indices" : 4, "mode" : 4}]}, {"primitives" : [{"attributes" : {"POSITION" : 9, "TEXCOORD_0" : 10, "NORMAL" : 11}, "indices" : 8, "mode" : 4}]}, {"primitives" : [{"attributes" : {"POSITION" : 13, "TEXCOORD_0" : 14, "NORMAL" : 15}, "indices" : 12, "mode" : 4}]}, {"primitives" : [{"attributes" : {"POSITION" : 17, "TEXCOORD_0" : 18, "NORMAL" : 19}, "indices" : 16, "mode" : 4}]}, {"primitives" : [{"attributes" : {"POSITION" : 21, "TEXCOORD_0" : 22, "NORMAL" : 23}, "indices" : 20, "mode" : 4}]}, {"primitives" : [{"attributes" : {"POSITION" : 25, "TEXCOORD_0" : 26, "NORMAL" : 27}, "indices" : 24, "mode" : 4}]}, {"primitives" : [{"attributes" : {"POSITION" : 29, "TEXCOORD_0" : 30, "NORMAL" : 31}, "indices" : 28, "mode" : 4}]}, {"primitives" : [{"attributes" : {"POSITION" : 33}, "indices" : 32, "mode" : 4}]}, {"primitives" : [{"attributes" : {"POSITION" : 35}, "indices" : 34, "mode" : 4}]}, {"primitives" : [{"attributes" : {"POSITION" : 37, "TEXCOORD_0" : 38, "NORMAL" : 39}, "indices" : 36, "mode" : 4}]}], "nodes" : [{"mesh" : 0, "name" : "typeMesh1"}, {"mesh" : 1, "name" : "polySurface43 polySurface37"}, {"mesh" : 2, "name" : "polySurface37 polySurface42"}, {"mesh" : 3, "name" : "polySurface37 polySurface41"}, {"mesh" : 4, "name" : "polySurface38"}, {"mesh" : 5, "name" : "pCube30"}, {"mesh" : 6, "name" : "typeMesh7"}, {"mesh" : 7, "name" : "typeMesh6"}, {"mesh" : 8, "name" : "typeMesh5"}, {"mesh" : 9, "name" : "typeMesh4"}, {"mesh" : 10, "name" : "polySurface36"}], "scene" : 0, "scenes" : [{"nodes" : [0, 1, 2, 3, 4, 5, 6, 7, 8, 9, 10]}]}