{
    "asset" : {
        "generator" : "Khronos glTF Blender I/O v1.2.75",
        "version" : "2.0"
    },
    "scene" : 0,
    "scenes" : [
        {
            "name" : "Scene",
            "nodes" : [
                0,
                1,
                2
            ]
        }
    ],
    "nodes" : [
        {
            "name" : "Light",
            "rotation" : [
                0.16907575726509094,
                0.7558803558349609,
                -0.27217137813568115,
                0.570947527885437
            ],
            "translation" : [
                4.076245307922363,
                5.903861999511719,
                -1.0054539442062378
            ]
        },
        {
            "name" : "Camera",
            "rotation" : [
                0.483536034822464,
                0.33687159419059753,
                -0.20870360732078552,
                0.7804827094078064
            ],
            "translation" : [
                7.358891487121582,
                4.958309173583984,
                6.925790786743164
            ]
        },
        {
            "mesh" : 0,
            "name" : "building",
            "rotation" : [
                0.7071068286895752,
                0,
                0,
                0.7071067094802856
            ]
        }
    ],
    "materials" : [
        {
            "alphaMode" : "BLEND",
            "doubleSided" : true,
            "emissiveFactor" : [
                0,
                0,
                0
            ],
            "name" : "typeBlinn1SG",
            "pbrMetallicRoughness" : {
                "baseColorFactor" : [
                    1,
                    1,
                    1,
                    1
                ],
                "metallicFactor" : 0,
                "roughnessFactor" : 1
            }
        },
        {
            "alphaMode" : "BLEND",
            "doubleSided" : true,
            "emissiveFactor" : [
                0,
                0,
                0
            ],
            "name" : "lambert2SG",
            "pbrMetallicRoughness" : {
                "baseColorTexture" : {
                    "index" : 0,
                    "texCoord" : 0
                },
                "metallicFactor" : 0,
                "roughnessFactor" : 1
            }
        },
        {
            "alphaMode" : "BLEND",
            "doubleSided" : true,
            "emissiveFactor" : [
                0,
                0,
                0
            ],
            "name" : "lambert3SG",
            "pbrMetallicRoughness" : {
                "baseColorFactor" : [
                    0.029999999329447746,
                    0.029999999329447746,
                    0.029999999329447746,
                    1
                ],
                "metallicFactor" : 0,
                "roughnessFactor" : 1
            }
        },
        {
            "alphaMode" : "BLEND",
            "doubleSided" : true,
            "emissiveFactor" : [
                0,
                0,
                0
            ],
            "name" : "typeBlinn2SG",
            "pbrMetallicRoughness" : {
                "baseColorFactor" : [
                    1,
                    1,
                    1,
                    1
                ],
                "metallicFactor" : 0,
                "roughnessFactor" : 1
            }
        }
    ],
    "meshes" : [
        {
            "name" : "building",
            "primitives" : [
                {
                    "attributes" : {
                        "POSITION" : 0,
                        "NORMAL" : 1,
                        "TEXCOORD_0" : 2
                    },
                    "indices" : 3,
                    "material" : 0
                },
                {
                    "attributes" : {
                        "POSITION" : 4,
                        "NORMAL" : 5,
                        "TEXCOORD_0" : 6
                    },
                    "indices" : 7,
                    "material" : 1
                },
                {
                    "attributes" : {
                        "POSITION" : 8,
                        "NORMAL" : 9,
                        "TEXCOORD_0" : 10
                    },
                    "indices" : 11,
                    "material" : 2
                },
                {
                    "attributes" : {
                        "POSITION" : 12,
                        "NORMAL" : 13,
                        "TEXCOORD_0" : 14
                    },
                    "indices" : 15,
                    "material" : 3
                }
            ]
        }
    ],
    "textures" : [
        {
            "source" : 0
        }
    ],
    "images" : [
        {
            "bufferView" : 8,
            "mimeType" : "image/png",
            "name" : "lkcBuilding_stylized_02"
        }
    ],
    "accessors" : [
        {
            "bufferView" : 0,
            "componentType" : 5126,
            "count" : 14234,
            "max" : [
                5.021703243255615,
                11.212766647338867,
                -0.1392974853515625
            ],
            "min" : [
                -8.982105255126953,
                -5.500164031982422,
                -6.643482685089111
            ],
            "type" : "VEC3"
        },
        {
            "bufferView" : 1,
            "componentType" : 5126,
            "count" : 14234,
            "type" : "VEC3"
        },
        {
            "bufferView" : 2,
            "componentType" : 5126,
            "count" : 14234,
            "type" : "VEC2"
        },
        {
            "bufferView" : 3,
            "componentType" : 5123,
            "count" : 35784,
            "type" : "SCALAR"
        },
        {
            "bufferView" : 4,
            "componentType" : 5126,
            "count" : 12460,
            "max" : [
                54.87443542480469,
                50.13640594482422,
                -0.18733501434326172
            ],
            "min" : [
                -48.817726135253906,
                -52.84943389892578,
                -6.498604774475098
            ],
            "type" : "VEC3"
        },
        {
            "bufferView" : 5,
            "componentType" : 5126,
            "count" : 12460,
            "type" : "VEC3"
        },
        {
            "bufferView" : 6,
            "componentType" : 5126,
            "count" : 12460,
            "type" : "VEC2"
        },
        {
            "bufferView" : 7,
            "componentType" : 5123,
            "count" : 24138,
            "type" : "SCALAR"
        },
        {
            "bufferView" : 9,
            "componentType" : 5126,
            "count" : 125,
            "max" : [
                54.70164489746094,
                50.13640594482422,
                -0.18733501434326172
            ],
            "min" : [
                -47.53853225708008,
                -52.84943389892578,
                -0.18733501434326172
            ],
            "type" : "VEC3"
        },
        {
            "bufferView" : 10,
            "componentType" : 5126,
            "count" : 125,
            "type" : "VEC3"
        },
        {
            "bufferView" : 11,
            "componentType" : 5126,
            "count" : 125,
            "type" : "VEC2"
        },
        {
            "bufferView" : 12,
            "componentType" : 5123,
            "count" : 222,
            "type" : "SCALAR"
        },
        {
            "bufferView" : 13,
            "componentType" : 5126,
            "count" : 5492,
            "max" : [
                37.600379943847656,
                3.2328243255615234,
                -0.16940593719482422
            ],
            "min" : [
                17.80823516845703,
                -44.0982666015625,
                -0.2694053649902344
            ],
            "type" : "VEC3"
        },
        {
            "bufferView" : 14,
            "componentType" : 5126,
            "count" : 5492,
            "type" : "VEC3"
        },
        {
            "bufferView" : 15,
            "componentType" : 5126,
            "count" : 5492,
            "type" : "VEC2"
        },
        {
            "bufferView" : 16,
            "componentType" : 5123,
            "count" : 14490,
            "type" : "SCALAR"
        }
    ],
    "bufferViews" : [
        {
            "buffer" : 0,
            "byteLength" : 170808,
            "byteOffset" : 0
        },
        {
            "buffer" : 0,
            "byteLength" : 170808,
            "byteOffset" : 170808
        },
        {
            "buffer" : 0,
            "byteLength" : 113872,
            "byteOffset" : 341616
        },
        {
            "buffer" : 0,
            "byteLength" : 71568,
            "byteOffset" : 455488
        },
        {
            "buffer" : 0,
            "byteLength" : 149520,
            "byteOffset" : 527056
        },
        {
            "buffer" : 0,
            "byteLength" : 149520,
            "byteOffset" : 676576
        },
        {
            "buffer" : 0,
            "byteLength" : 99680,
            "byteOffset" : 826096
        },
        {
            "buffer" : 0,
            "byteLength" : 48276,
            "byteOffset" : 925776
        },
        {
            "buffer" : 0,
            "byteLength" : 602763,
            "byteOffset" : 974052
        },
        {
            "buffer" : 0,
            "byteLength" : 1500,
            "byteOffset" : 1576816
        },
        {
            "buffer" : 0,
            "byteLength" : 1500,
            "byteOffset" : 1578316
        },
        {
            "buffer" : 0,
            "byteLength" : 1000,
            "byteOffset" : 1579816
        },
        {
            "buffer" : 0,
            "byteLength" : 444,
            "byteOffset" : 1580816
        },
        {
            "buffer" : 0,
            "byteLength" : 65904,
            "byteOffset" : 1581260
        },
        {
            "buffer" : 0,
            "byteLength" : 65904,
            "byteOffset" : 1647164
        },
        {
            "buffer" : 0,
            "byteLength" : 43936,
            "byteOffset" : 1713068
        },
        {
            "buffer" : 0,
            "byteLength" : 28980,
            "byteOffset" : 1757004
        }
    ],
    "buffers" : [
        {
            "byteLength" : 1785984,
            "uri" : "data:application/octet-stream;base64,"
        }
    ]
}
