{
    "asset" : {
        "generator" : "Khronos glTF Blender I/O v1.2.75",
        "version" : "2.0"
    },
    "scene" : 0,
    "scenes" : [
        {
            "name" : "Scene",
            "nodes" : [
                0,
                1,
                2
            ]
        }
    ],
    "nodes" : [
        {
            "name" : "Light",
            "rotation" : [
                0.16907575726509094,
                0.7558803558349609,
                -0.27217137813568115,
                0.570947527885437
            ],
            "translation" : [
                4.076245307922363,
                5.903861999511719,
                -1.0054539442062378
            ]
        },
        {
            "name" : "Camera",
            "rotation" : [
                0.483536034822464,
                0.33687159419059753,
                -0.20870360732078552,
                0.7804827094078064
            ],
            "translation" : [
                7.358891487121582,
                4.958309173583984,
                6.925790786743164
            ]
        },
        {
            "mesh" : 0,
            "name" : "building_001",
            "rotation" : [
                0.7071068286895752,
                0,
                0,
                0.7071067094802856
            ]
        }
    ],
    "materials" : [
        {
            "emissiveFactor" : [
                0,
                0,
                0
            ],
            "name" : "typeBlinn2SG",
            "pbrMetallicRoughness" : {
                "baseColorFactor" : [
                    1,
                    1,
                    1,
                    1
                ],
                "metallicFactor" : 0,
                "roughnessFactor" : 1
            }
        },
        {
            "emissiveFactor" : [
                0,
                0,
                0
            ],
            "name" : "typeBlinn1SG",
            "pbrMetallicRoughness" : {
                "baseColorFactor" : [
                    1,
                    1,
                    1,
                    1
                ],
                "metallicFactor" : 0,
                "roughnessFactor" : 1
            }
        },
        {
            "doubleSided" : true,
            "emissiveFactor" : [
                0,
                0,
                0
            ],
            "name" : "lambert2SG",
            "pbrMetallicRoughness" : {
                "baseColorTexture" : {
                    "index" : 0,
                    "texCoord" : 0
                },
                "metallicFactor" : 0,
                "roughnessFactor" : 1
            }
        },
        {
            "doubleSided" : true,
            "emissiveFactor" : [
                0,
                0,
                0
            ],
            "name" : "lambert3SG",
            "pbrMetallicRoughness" : {
                "baseColorFactor" : [
                    0.029999999329447746,
                    0.029999999329447746,
                    0.029999999329447746,
                    1
                ],
                "metallicFactor" : 0,
                "roughnessFactor" : 1
            }
        }
    ],
    "meshes" : [
        {
            "name" : "building_001",
            "primitives" : [
                {
                    "attributes" : {
                        "POSITION" : 0,
                        "NORMAL" : 1,
                        "TEXCOORD_0" : 2
                    },
                    "indices" : 3,
                    "material" : 0
                },
                {
                    "attributes" : {
                        "POSITION" : 4,
                        "NORMAL" : 5,
                        "TEXCOORD_0" : 6
                    },
                    "indices" : 7,
                    "material" : 1
                },
                {
                    "attributes" : {
                        "POSITION" : 8,
                        "NORMAL" : 9,
                        "TEXCOORD_0" : 10
                    },
                    "indices" : 11,
                    "material" : 2
                },
                {
                    "attributes" : {
                        "POSITION" : 12,
                        "NORMAL" : 13,
                        "TEXCOORD_0" : 14
                    },
                    "indices" : 15,
                    "material" : 3
                }
            ]
        }
    ],
    "textures" : [
        {
            "source" : 0
        }
    ],
    "images" : [
        {
            "bufferView" : 12,
            "mimeType" : "image/jpeg",
            "name" : "lkcJpg"
        }
    ],
    "accessors" : [
        {
            "bufferView" : 0,
            "componentType" : 5126,
            "count" : 8092,
            "max" : [
                40.12210464477539,
                11.417509078979492,
                -0.37189292907714844
            ],
            "min" : [
                19.197998046875,
                -43.95730209350586,
                -1.3016066551208496
            ],
            "type" : "VEC3"
        },
        {
            "bufferView" : 1,
            "componentType" : 5126,
            "count" : 8092,
            "type" : "VEC3"
        },
        {
            "bufferView" : 2,
            "componentType" : 5126,
            "count" : 8092,
            "type" : "VEC2"
        },
        {
            "bufferView" : 3,
            "componentType" : 5123,
            "count" : 21234,
            "type" : "SCALAR"
        },
        {
            "bufferView" : 4,
            "componentType" : 5126,
            "count" : 14234,
            "max" : [
                6.411465167999268,
                11.353731155395508,
                -0.3417844772338867
            ],
            "min" : [
                -7.592343807220459,
                -5.359199523925781,
                -6.8459696769714355
            ],
            "type" : "VEC3"
        },
        {
            "bufferView" : 5,
            "componentType" : 5126,
            "count" : 14234,
            "type" : "VEC3"
        },
        {
            "bufferView" : 6,
            "componentType" : 5126,
            "count" : 14234,
            "type" : "VEC2"
        },
        {
            "bufferView" : 7,
            "componentType" : 5123,
            "count" : 35784,
            "type" : "SCALAR"
        },
        {
            "bufferView" : 8,
            "componentType" : 5126,
            "count" : 12455,
            "max" : [
                56.264198303222656,
                50.277366638183594,
                -0.38982200622558594
            ],
            "min" : [
                -47.42796325683594,
                -52.708465576171875,
                -6.701091766357422
            ],
            "type" : "VEC3"
        },
        {
            "bufferView" : 9,
            "componentType" : 5126,
            "count" : 12455,
            "type" : "VEC3"
        },
        {
            "bufferView" : 10,
            "componentType" : 5126,
            "count" : 12455,
            "type" : "VEC2"
        },
        {
            "bufferView" : 11,
            "componentType" : 5123,
            "count" : 24138,
            "type" : "SCALAR"
        },
        {
            "bufferView" : 13,
            "componentType" : 5126,
            "count" : 122,
            "max" : [
                56.091407775878906,
                50.277366638183594,
                -0.38982200622558594
            ],
            "min" : [
                -46.14876937866211,
                -52.708465576171875,
                -0.38982200622558594
            ],
            "type" : "VEC3"
        },
        {
            "bufferView" : 14,
            "componentType" : 5126,
            "count" : 122,
            "type" : "VEC3"
        },
        {
            "bufferView" : 15,
            "componentType" : 5126,
            "count" : 122,
            "type" : "VEC2"
        },
        {
            "bufferView" : 16,
            "componentType" : 5123,
            "count" : 222,
            "type" : "SCALAR"
        }
    ],
    "bufferViews" : [
        {
            "buffer" : 0,
            "byteLength" : 97104,
            "byteOffset" : 0
        },
        {
            "buffer" : 0,
            "byteLength" : 97104,
            "byteOffset" : 97104
        },
        {
            "buffer" : 0,
            "byteLength" : 64736,
            "byteOffset" : 194208
        },
        {
            "buffer" : 0,
            "byteLength" : 42468,
            "byteOffset" : 258944
        },
        {
            "buffer" : 0,
            "byteLength" : 170808,
            "byteOffset" : 301412
        },
        {
            "buffer" : 0,
            "byteLength" : 170808,
            "byteOffset" : 472220
        },
        {
            "buffer" : 0,
            "byteLength" : 113872,
            "byteOffset" : 643028
        },
        {
            "buffer" : 0,
            "byteLength" : 71568,
            "byteOffset" : 756900
        },
        {
            "buffer" : 0,
            "byteLength" : 149460,
            "byteOffset" : 828468
        },
        {
            "buffer" : 0,
            "byteLength" : 149460,
            "byteOffset" : 977928
        },
        {
            "buffer" : 0,
            "byteLength" : 99640,
            "byteOffset" : 1127388
        },
        {
            "buffer" : 0,
            "byteLength" : 48276,
            "byteOffset" : 1227028
        },
        {
            "buffer" : 0,
            "byteLength" : 10563,
            "byteOffset" : 1275304
        },
        {
            "buffer" : 0,
            "byteLength" : 1464,
            "byteOffset" : 1285868
        },
        {
            "buffer" : 0,
            "byteLength" : 1464,
            "byteOffset" : 1287332
        },
        {
            "buffer" : 0,
            "byteLength" : 976,
            "byteOffset" : 1288796
        },
        {
            "buffer" : 0,
            "byteLength" : 444,
            "byteOffset" : 1289772
        }
    ],
    "buffers" : [
        {
            "byteLength" : 1290216,
            "uri" : "data:application/octet-stream;base64,"
        }
    ]
}
