{
    "asset" : {
        "generator" : "Khronos glTF Blender I/O v1.2.75",
        "version" : "2.0"
    },
    "scene" : 0,
    "scenes" : [
        {
            "name" : "Scene",
            "nodes" : [
                6,
                7,
                8
            ]
        }
    ],
    "nodes" : [
        {
            "mesh" : 0,
            "name" : "pointer_lambert1_0",
            "translation" : [
                -7.162388324737549,
                -1.2993251085281372,
                -19.464847564697266
            ]
        },
        {
            "children" : [
                0
            ],
            "name" : "pointer",
            "rotation" : [
                1,
                0,
                0,
                6.123234262925839e-17
            ],
            "translation" : [
                7.206647872924805,
                1.0509148836135864,
                -19.532804489135742
            ]
        },
        {
            "children" : [
                1
            ],
            "name" : "RootNode"
        },
        {
            "children" : [
                2
            ],
            "name" : "Node_3"
        },
        {
            "children" : [
                3
            ],
            "name" : "0ad330ba4b2e49098e485ebd17acda41.fbx",
            "rotation" : [
                0.7071068286895752,
                0,
                0,
                0.7071068286895752
            ]
        },
        {
            "children" : [
                4
            ],
            "name" : "RootNode (model correction matrix)"
        },
        {
            "children" : [
                5
            ],
            "name" : "RootNode (gltf orientation matrix)",
            "rotation" : [
                -0.7071067690849304,
                0,
                0,
                0.7071067690849304
            ]
        },
        {
            "name" : "Light",
            "rotation" : [
                0.16907575726509094,
                0.7558803558349609,
                -0.27217137813568115,
                0.570947527885437
            ],
            "translation" : [
                4.076245307922363,
                5.903861999511719,
                -1.0054539442062378
            ]
        },
        {
            "name" : "Camera",
            "rotation" : [
                0.483536034822464,
                0.33687159419059753,
                -0.20870360732078552,
                0.7804827094078064
            ],
            "translation" : [
                7.358891487121582,
                4.958309173583984,
                6.925790786743164
            ]
        }
    ],
    "animations" : [
        {
            "channels" : [
                {
                    "sampler" : 0,
                    "target" : {
                        "node" : 1,
                        "path" : "translation"
                    }
                }
            ],
            "name" : "Take 001",
            "samplers" : [
                {
                    "input" : 4,
                    "interpolation" : "LINEAR",
                    "output" : 5
                }
            ]
        }
    ],
    "materials" : [
        {
            "doubleSided" : true,
            "emissiveFactor" : [
                0.4448229670524597,
                0.3944432735443115,
                0.026756051927804947
            ],
            "name" : "lambert1",
            "pbrMetallicRoughness" : {
                "baseColorFactor" : [
                    0.7678118944168091,
                    0.6086260676383972,
                    0,
                    1
                ],
                "metallicFactor" : 0,
                "roughnessFactor" : 1
            }
        }
    ],
    "meshes" : [
        {
            "name" : "pointer_lambert1_0",
            "primitives" : [
                {
                    "attributes" : {
                        "POSITION" : 0,
                        "NORMAL" : 1,
                        "TEXCOORD_0" : 2
                    },
                    "indices" : 3,
                    "material" : 0
                }
            ]
        }
    ],
    "accessors" : [
        {
            "bufferView" : 0,
            "componentType" : 5126,
            "count" : 83,
            "max" : [
                1.0000019073486328,
                2.2993249893188477,
                1.0000152587890625
            ],
            "min" : [
                -0.999997615814209,
                -1.2855045795440674,
                -0.9999847412109375
            ],
            "type" : "VEC3"
        },
        {
            "bufferView" : 1,
            "componentType" : 5126,
            "count" : 83,
            "type" : "VEC3"
        },
        {
            "bufferView" : 2,
            "componentType" : 5126,
            "count" : 83,
            "type" : "VEC2"
        },
        {
            "bufferView" : 3,
            "componentType" : 5123,
            "count" : 138,
            "type" : "SCALAR"
        },
        {
            "bufferView" : 4,
            "componentType" : 5126,
            "count" : 120,
            "max" : [
                5
            ],
            "min" : [
                0.041666666666666664
            ],
            "type" : "SCALAR"
        },
        {
            "bufferView" : 5,
            "componentType" : 5126,
            "count" : 120,
            "type" : "VEC3"
        }
    ],
    "bufferViews" : [
        {
            "buffer" : 0,
            "byteLength" : 996,
            "byteOffset" : 0
        },
        {
            "buffer" : 0,
            "byteLength" : 996,
            "byteOffset" : 996
        },
        {
            "buffer" : 0,
            "byteLength" : 664,
            "byteOffset" : 1992
        },
        {
            "buffer" : 0,
            "byteLength" : 276,
            "byteOffset" : 2656
        },
        {
            "buffer" : 0,
            "byteLength" : 480,
            "byteOffset" : 2932
        },
        {
            "buffer" : 0,
            "byteLength" : 1440,
            "byteOffset" : 3412
        }
    ],
    "buffers" : [
        {
            "byteLength" : 4852,
            "uri" : "data:application/octet-stream;base64,"
        }
    ]
}
